<svg width="24" height="24" viewBox="0 0 24 24" fill="none" xmlns="http://www.w3.org/2000/svg">
<g clip-path="url(#clip0_126_428_3423)">
<path d="M23.3456 11.634C23.3456 5.29176 18.1936 0.145508 11.8456 0.145508C5.49758 0.145508 0.345581 5.29176 0.345581 11.634C0.345581 15.1271 1.93258 18.2753 4.41658 20.3884C4.43958 20.4114 4.46258 20.4114 4.46258 20.4344C4.66958 20.5954 4.87658 20.7564 5.10658 20.9174C5.22158 20.9864 5.31358 21.0769 5.42858 21.1689C7.32905 22.4575 9.57248 23.146 11.8686 23.1455C14.1647 23.146 16.4081 22.4575 18.3086 21.1689C18.4236 21.0999 18.5156 21.0094 18.6306 20.9389C18.8376 20.7794 19.0676 20.6184 19.2746 20.4574C19.2976 20.4344 19.3206 20.4344 19.3206 20.4114C21.7586 18.2738 23.3456 15.1271 23.3456 11.634ZM11.8456 21.6979C9.68358 21.6979 7.70558 21.0079 6.07258 19.8594C6.09558 19.6754 6.14158 19.4928 6.18758 19.3088C6.32463 18.8102 6.52563 18.3313 6.78558 17.8843C7.03858 17.4473 7.33758 17.0563 7.70558 16.7113C8.05058 16.3663 8.46458 16.0457 8.87858 15.7927C9.31558 15.5397 9.77558 15.3557 10.2816 15.2177C10.7915 15.0802 11.3174 15.0111 11.8456 15.0121C13.4134 15.001 14.9236 15.6024 16.0546 16.6883C16.5836 17.2173 16.9976 17.8383 17.2966 18.5498C17.4576 18.9638 17.5726 19.4008 17.6416 19.8594C15.9441 21.0527 13.9205 21.6947 11.8456 21.6979ZM8.32658 11.0604C8.12393 10.5964 8.02201 10.0947 8.02758 9.58844C8.02758 9.08388 8.11958 8.57788 8.32658 8.11788C8.53358 7.65788 8.80958 7.24532 9.15458 6.90032C9.49958 6.55532 9.91358 6.28076 10.3736 6.07376C10.8336 5.86676 11.3396 5.77476 11.8456 5.77476C12.3746 5.77476 12.8576 5.86676 13.3176 6.07376C13.7776 6.28076 14.1916 6.55676 14.5366 6.90032C14.8816 7.24532 15.1576 7.65932 15.3646 8.11788C15.5716 8.57788 15.6636 9.08388 15.6636 9.58844C15.6636 10.1174 15.5716 10.6004 15.3646 11.059C15.1648 11.5122 14.8842 11.9253 14.5366 12.278C14.1837 12.6252 13.7707 12.9052 13.3176 13.1046C12.3671 13.4952 11.301 13.4952 10.3506 13.1046C9.8975 12.9052 9.48444 12.6252 9.13158 12.278C8.78344 11.9304 8.50957 11.5157 8.32658 11.059V11.0604ZM18.9986 18.6878C18.9986 18.6418 18.9756 18.6188 18.9756 18.5728C18.7494 17.8532 18.416 17.1719 17.9866 16.5517C17.5568 15.9269 17.0286 15.3759 16.4226 14.9201C15.9597 14.5719 15.4581 14.2786 14.9276 14.0461C15.1689 13.8869 15.3925 13.7024 15.5946 13.4956C15.9375 13.157 16.2386 12.7787 16.4916 12.3686C17.001 11.5317 17.264 10.5681 17.2506 9.58844C17.2577 8.86325 17.1168 8.14422 16.8366 7.47532C16.5599 6.8308 16.1616 6.24562 15.6636 5.75176C15.1663 5.26305 14.581 4.87286 13.9386 4.60176C13.2686 4.32201 12.5486 4.18164 11.8226 4.1892C11.0965 4.18209 10.3765 4.32296 9.70658 4.6032C9.05863 4.87371 8.47193 5.27219 7.98158 5.77476C7.49289 6.27154 7.10268 6.85636 6.83158 7.49832C6.55134 8.16722 6.41047 8.88625 6.41758 9.61145C6.41758 10.1174 6.48658 10.6004 6.62458 11.059C6.76258 11.542 6.94658 11.979 7.19958 12.3916C7.42958 12.8056 7.75158 13.1736 8.09658 13.5186C8.30358 13.7256 8.53358 13.9081 8.78658 14.0691C8.25447 14.3078 7.75261 14.609 7.29158 14.9661C6.69358 15.4261 6.16458 15.9767 5.72758 16.5747C5.29383 17.1923 4.96007 17.8744 4.73858 18.5958C4.71558 18.6418 4.71558 18.6878 4.71558 18.7108C2.89858 16.8723 1.77158 14.3911 1.77158 11.634C1.77158 6.09676 6.30258 1.57007 11.8456 1.57007C17.3886 1.57007 21.9196 6.09676 21.9196 11.634C21.9166 14.2789 20.8664 16.8151 18.9986 18.6878Z" fill="#BABABA"/>
</g>
<defs>
<clipPath id="clip0_126_428_3423">
<rect width="23" height="23" fill="white" transform="translate(0.345581 0.145508)"/>
</clipPath>
</defs>
</svg>
