<svg width="123" height="19" viewBox="0 0 123 19" fill="none" xmlns="http://www.w3.org/2000/svg">
<path d="M0.776 18V0.959999H12.224V3.864H4.088V8.256H10.856V10.944H4.088V18H0.776ZM14.2453 18V5.424H17.4613V18H14.2453ZM14.2453 3.672V0.48H17.4613V3.672H14.2453ZM32.0504 18H28.8344V10.944C28.8344 9.936 28.6584 9.2 28.3064 8.736C27.9544 8.272 27.4664 8.04 26.8424 8.04C26.5224 8.04 26.1944 8.104 25.8584 8.232C25.5224 8.36 25.2024 8.544 24.8984 8.784C24.6104 9.008 24.3464 9.28 24.1064 9.6C23.8664 9.92 23.6904 10.272 23.5784 10.656V18H20.3624V5.424H23.2664V7.752C23.7304 6.952 24.4024 6.328 25.2824 5.88C26.1624 5.432 27.1544 5.208 28.2584 5.208C29.0424 5.208 29.6824 5.352 30.1784 5.64C30.6744 5.928 31.0584 6.304 31.3304 6.768C31.6024 7.232 31.7864 7.76 31.8824 8.352C31.9944 8.944 32.0504 9.544 32.0504 10.152V18ZM40.0548 18.24C39.1908 18.24 38.3908 18.072 37.6548 17.736C36.9188 17.4 36.2868 16.936 35.7588 16.344C35.2308 15.752 34.8148 15.064 34.5108 14.28C34.2228 13.48 34.0788 12.624 34.0788 11.712C34.0788 10.8 34.2148 9.952 34.4868 9.168C34.7748 8.384 35.1668 7.696 35.6628 7.104C36.1588 6.512 36.7508 6.048 37.4388 5.712C38.1268 5.376 38.8788 5.208 39.6948 5.208C40.6228 5.208 41.4548 5.432 42.1908 5.88C42.9428 6.328 43.5268 6.912 43.9428 7.632V0.48H47.1588V14.304C47.1588 14.64 47.2148 14.88 47.3268 15.024C47.4388 15.168 47.6308 15.248 47.9028 15.264V18C47.3428 18.112 46.8868 18.168 46.5348 18.168C45.9588 18.168 45.4868 18.024 45.1188 17.736C44.7508 17.448 44.5428 17.072 44.4948 16.608L44.4228 15.816C43.9588 16.616 43.3268 17.224 42.5268 17.64C41.7428 18.04 40.9188 18.24 40.0548 18.24ZM40.8948 15.504C41.1988 15.504 41.5108 15.456 41.8308 15.36C42.1508 15.248 42.4468 15.096 42.7188 14.904C42.9908 14.712 43.2308 14.488 43.4388 14.232C43.6628 13.976 43.8308 13.696 43.9428 13.392V10.392C43.8148 10.04 43.6308 9.72 43.3908 9.432C43.1668 9.128 42.9028 8.872 42.5988 8.664C42.3108 8.44 41.9988 8.264 41.6628 8.136C41.3428 8.008 41.0228 7.944 40.7028 7.944C40.2228 7.944 39.7748 8.048 39.3588 8.256C38.9588 8.464 38.6148 8.752 38.3268 9.12C38.0388 9.472 37.8148 9.88 37.6548 10.344C37.4948 10.808 37.4148 11.288 37.4148 11.784C37.4148 12.312 37.5028 12.8 37.6788 13.248C37.8548 13.696 38.0948 14.088 38.3988 14.424C38.7028 14.76 39.0628 15.024 39.4788 15.216C39.9108 15.408 40.3828 15.504 40.8948 15.504Z" fill="white"/>
<path d="M49.5956 9.36C49.5956 8.32 49.7796 7.296 50.1476 6.288C50.5316 5.264 51.0836 4.352 51.8036 3.552C52.5236 2.752 53.4036 2.104 54.4436 1.608C55.4836 1.112 56.6676 0.863999 57.9956 0.863999C59.5636 0.863999 60.9156 1.208 62.0516 1.896C63.2036 2.584 64.0596 3.48 64.6196 4.584L62.0756 6.336C61.8516 5.856 61.5796 5.456 61.2596 5.136C60.9396 4.8 60.5956 4.536 60.2276 4.344C59.8596 4.152 59.4756 4.016 59.0756 3.936C58.6756 3.84 58.2836 3.792 57.8996 3.792C57.0676 3.792 56.3396 3.96 55.7156 4.296C55.1076 4.632 54.5956 5.072 54.1796 5.616C53.7796 6.144 53.4756 6.752 53.2676 7.44C53.0596 8.112 52.9556 8.784 52.9556 9.456C52.9556 10.208 53.0756 10.936 53.3156 11.64C53.5556 12.328 53.8916 12.936 54.3236 13.464C54.7716 13.992 55.2996 14.416 55.9076 14.736C56.5316 15.056 57.2116 15.216 57.9476 15.216C58.3316 15.216 58.7316 15.168 59.1476 15.072C59.5636 14.976 59.9556 14.824 60.3236 14.616C60.7076 14.408 61.0596 14.144 61.3796 13.824C61.6996 13.488 61.9556 13.088 62.1476 12.624L64.8596 14.184C64.5876 14.824 64.1956 15.392 63.6836 15.888C63.1876 16.368 62.6196 16.776 61.9796 17.112C61.3556 17.448 60.6836 17.704 59.9636 17.88C59.2436 18.056 58.5396 18.144 57.8516 18.144C56.6356 18.144 55.5236 17.888 54.5156 17.376C53.5076 16.864 52.6356 16.2 51.8996 15.384C51.1796 14.552 50.6116 13.616 50.1956 12.576C49.7956 11.52 49.5956 10.448 49.5956 9.36ZM74.1886 18.12C72.9406 18.12 71.8046 17.88 70.7806 17.4C69.7726 16.904 68.9006 16.256 68.1646 15.456C67.4446 14.64 66.8846 13.712 66.4846 12.672C66.0846 11.632 65.8846 10.568 65.8846 9.48C65.8846 8.344 66.0926 7.256 66.5086 6.216C66.9406 5.176 67.5246 4.256 68.2606 3.456C69.0126 2.656 69.9006 2.024 70.9246 1.56C71.9486 1.08 73.0606 0.839999 74.2606 0.839999C75.4926 0.839999 76.6126 1.096 77.6206 1.608C78.6446 2.104 79.5166 2.76 80.2366 3.576C80.9566 4.392 81.5166 5.32 81.9166 6.36C82.3166 7.4 82.5166 8.456 82.5166 9.528C82.5166 10.664 82.3086 11.752 81.8926 12.792C81.4766 13.816 80.9006 14.728 80.1646 15.528C79.4286 16.312 78.5486 16.944 77.5246 17.424C76.5006 17.888 75.3886 18.12 74.1886 18.12ZM69.2446 9.48C69.2446 10.216 69.3566 10.928 69.5806 11.616C69.8046 12.304 70.1246 12.912 70.5406 13.44C70.9726 13.968 71.4926 14.392 72.1006 14.712C72.7246 15.032 73.4286 15.192 74.2126 15.192C75.0126 15.192 75.7166 15.032 76.3246 14.712C76.9486 14.376 77.4686 13.936 77.8846 13.392C78.3166 12.848 78.6366 12.24 78.8446 11.568C79.0686 10.88 79.1806 10.184 79.1806 9.48C79.1806 8.744 79.0606 8.032 78.8206 7.344C78.5966 6.656 78.2686 6.048 77.8366 5.52C77.4206 4.992 76.9006 4.576 76.2766 4.272C75.6686 3.952 74.9806 3.792 74.2126 3.792C73.4126 3.792 72.7006 3.96 72.0766 4.296C71.4526 4.616 70.9326 5.048 70.5166 5.592C70.1006 6.12 69.7806 6.728 69.5566 7.416C69.3486 8.088 69.2446 8.776 69.2446 9.48ZM85.0573 18V0.959999H88.3693V18H85.0573ZM95.2364 7.08V18H91.9244V0.959999H94.4924L103.372 12.144V0.983999H106.684V18H103.996L95.2364 7.08ZM122.973 3.864H117.525V18H114.237V3.864H108.789V0.959999H122.973V3.864Z" fill="#36FFB5"/>
</svg>
