<svg width="325" height="279" viewBox="0 0 325 279" fill="none" xmlns="http://www.w3.org/2000/svg">
<path d="M33.8516 47H42.4569L26.2588 1.34773H17.0524L0.8542 47H9.26966L13.161 35.1994H29.9603L33.8516 47ZM21.4499 9.41518H21.6714L28.0304 28.9036H15.0592L21.4499 9.41518ZM55.523 47V1.34773H47.3607V47H55.523ZM84.0913 31.9724V24.949H63.3057V31.9724H84.0913ZM111.046 47C120.79 47 126.706 42.0646 126.706 34.0288C126.706 27.9861 122.372 23.5253 116.171 22.9242V22.6711C120.854 21.9118 124.492 17.6408 124.492 12.7371C124.492 5.80856 119.145 1.34773 110.856 1.34773H91.9056V47H111.046ZM100.068 7.70678H108.8C113.672 7.70678 116.424 9.95301 116.424 13.9393C116.424 18.1786 113.229 20.5831 107.534 20.5831H100.068V7.70678ZM100.068 40.641V26.3726H108.831C115.096 26.3726 118.386 28.8087 118.386 33.4593C118.386 38.1416 115.191 40.641 109.179 40.641H100.068ZM162.361 47H170.967L154.768 1.34773H145.562L129.364 47H137.779L141.671 35.1994H158.47L162.361 47ZM149.96 9.41518H150.181L156.54 28.9036H143.569L149.96 9.41518ZM173.371 34.1554C173.719 42.5708 180.616 47.7593 191.119 47.7593C202.161 47.7593 209.121 42.3177 209.121 33.6492C209.121 26.8472 205.198 23.0191 195.928 20.8994L190.677 19.6972C185.077 18.3685 182.767 16.5968 182.767 13.5596C182.767 9.76319 186.247 7.23222 191.404 7.23222C196.624 7.23222 200.199 9.79482 200.579 14.0658H208.362C208.172 6.03002 201.528 0.588442 191.467 0.588442C181.533 0.588442 174.478 6.06165 174.478 14.1607C174.478 20.678 178.465 24.7275 186.88 26.6574L192.796 28.0494C198.554 29.4098 200.895 31.308 200.895 34.5983C200.895 38.3947 197.067 41.1155 191.562 41.1155C185.994 41.1155 181.787 38.3631 181.28 34.1554H173.371ZM244.839 40.1031H223.453V27.0687H243.669V20.5831H223.453V8.24461H244.839V1.34773H215.29V47H244.839V40.1031ZM251.926 1.34773V47H268.599C282.266 47 290.302 38.5213 290.302 24.0631C290.302 9.605 282.234 1.34773 268.599 1.34773H251.926ZM260.088 8.24461H267.744C276.856 8.24461 281.981 13.876 281.981 24.0948C281.981 34.5034 276.919 40.1031 267.744 40.1031H260.088V8.24461ZM12.1803 124V105.366H31.3207V98.722H12.1803V85.2446H33.124V78.3477H4.01791V124H12.1803ZM65.7418 124H74.3471L58.1489 78.3477H48.9425L32.7444 124H41.1598L45.0512 112.199H61.8504L65.7418 124ZM53.3401 86.4152H53.5615L59.9206 105.904H46.9494L53.3401 86.4152ZM76.7515 111.155C77.0995 119.571 83.9964 124.759 94.4999 124.759C105.541 124.759 112.501 119.318 112.501 110.649C112.501 103.847 108.578 100.019 99.3087 97.8994L94.057 96.6972C88.4572 95.3685 86.1477 93.5968 86.1477 90.5596C86.1477 86.7632 89.6278 84.2322 94.7846 84.2322C100.005 84.2322 103.58 86.7948 103.959 91.0658H111.742C111.552 83.03 104.908 77.5884 94.8479 77.5884C84.9139 77.5884 77.8588 83.0617 77.8588 91.1607C77.8588 97.678 81.8451 101.728 90.2605 103.657L96.1766 105.049C101.935 106.41 104.276 108.308 104.276 111.598C104.276 115.395 100.448 118.116 94.9428 118.116C89.3747 118.116 85.1669 115.363 84.6608 111.155H76.7515ZM157.173 124V78.3477H149.042V97.33H126.833V78.3477H118.671V124H126.833V104.195H149.042V124H157.173ZM173.403 124V78.3477H165.24V124H173.403ZM201.56 77.5884C188.24 77.5884 179.888 86.6683 179.888 101.19C179.888 115.711 188.24 124.759 201.56 124.759C214.847 124.759 223.199 115.711 223.199 101.19C223.199 86.6683 214.847 77.5884 201.56 77.5884ZM201.56 84.5486C209.69 84.5486 214.879 91.0026 214.879 101.19C214.879 111.345 209.69 117.799 201.56 117.799C193.397 117.799 188.24 111.345 188.24 101.19C188.24 91.0026 193.397 84.5486 201.56 84.5486ZM237.594 124V91.9833H237.879L260.563 124H267.586V78.3477H259.74V110.333H259.455L236.803 78.3477H229.717V124H237.594ZM23.6962 201.759C34.4844 201.759 41.9507 195.843 43.3744 186.067H35.3702C34.1047 191.572 29.7705 194.831 23.7278 194.831C15.8185 194.831 10.8199 188.408 10.8199 178.158C10.8199 167.971 15.8502 161.517 23.6962 161.517C29.6123 161.517 34.2629 165.282 35.3386 171.008H43.3744C42.362 161.201 34.2946 154.588 23.6962 154.588C10.725 154.588 2.46769 163.605 2.46769 178.158C2.46769 192.806 10.6617 201.759 23.6962 201.759ZM57.7376 155.348H49.5753V184.897C49.5753 194.862 56.7885 201.759 68.336 201.759C79.9152 201.759 87.0968 194.862 87.0968 184.897V155.348H78.9661V184.169C78.9661 190.402 75.1064 194.641 68.336 194.641C61.5657 194.641 57.7376 190.402 57.7376 184.169V155.348ZM103.358 161.96H112.406C117.563 161.96 120.759 164.934 120.759 169.743C120.759 174.678 117.753 177.557 112.565 177.557H103.358V161.96ZM103.358 183.821H112.185L121.17 201H130.471L120.506 182.587C125.947 180.626 129.111 175.595 129.111 169.553C129.111 160.821 123.195 155.348 113.324 155.348H95.1959V201H103.358V183.821ZM165.525 201H174.13L157.932 155.348H148.726L132.528 201H140.943L144.834 189.199H161.634L165.525 201ZM153.123 163.415H153.345L159.704 182.904H146.733L153.123 163.415ZM192.069 201V162.245H205.704V155.348H170.271V162.245H183.938V201H192.069ZM219.466 201V155.348H211.304V201H219.466ZM247.623 154.588C234.304 154.588 225.952 163.668 225.952 178.19C225.952 192.711 234.304 201.759 247.623 201.759C260.911 201.759 269.263 192.711 269.263 178.19C269.263 163.668 260.911 154.588 247.623 154.588ZM247.623 161.549C255.754 161.549 260.942 168.003 260.942 178.19C260.942 188.345 255.754 194.799 247.623 194.799C239.461 194.799 234.304 188.345 234.304 178.19C234.304 168.003 239.461 161.549 247.623 161.549ZM283.658 201V168.983H283.943L306.626 201H313.65V155.348H305.804V187.333H305.519L282.867 155.348H275.78V201H283.658ZM4.01791 232.348V278H12.1803V262.909H21.4183C30.6563 262.909 37.1419 256.74 37.1419 247.628C37.1419 238.517 30.8461 232.348 21.7663 232.348H4.01791ZM12.1803 239.023H19.615C25.4678 239.023 28.853 242.155 28.853 247.628C28.853 253.165 25.4362 256.329 19.5833 256.329H12.1803V239.023ZM72.0059 271.103H51.2837V232.348H43.1213V278H72.0059V271.103ZM107.693 278H116.298L100.1 232.348H90.8933L74.6951 278H83.1105L87.0019 266.199H103.801L107.693 278ZM95.2908 240.415H95.5123L101.871 259.904H88.9001L95.2908 240.415ZM134.236 278V239.245H147.872V232.348H112.438V239.245H126.105V278H134.236ZM161.634 278V259.366H180.774V252.722H161.634V239.245H182.577V232.348H153.471V278H161.634ZM208.646 231.588C195.327 231.588 186.975 240.668 186.975 255.19C186.975 269.711 195.327 278.759 208.646 278.759C221.934 278.759 230.286 269.711 230.286 255.19C230.286 240.668 221.934 231.588 208.646 231.588ZM208.646 238.549C216.777 238.549 221.966 245.003 221.966 255.19C221.966 265.345 216.777 271.799 208.646 271.799C200.484 271.799 195.327 265.345 195.327 255.19C195.327 245.003 200.484 238.549 208.646 238.549ZM244.966 238.96H254.014C259.171 238.96 262.366 241.934 262.366 246.743C262.366 251.678 259.361 254.557 254.172 254.557H244.966V238.96ZM244.966 260.821H253.792L262.777 278H272.079L262.113 259.587C267.555 257.626 270.718 252.595 270.718 246.553C270.718 237.821 264.802 232.348 254.931 232.348H236.803V278H244.966V260.821ZM324.406 278V232.348H314.979L300.995 266.8H300.742L286.758 232.348H277.299V278H284.67V245.604H284.892L298.084 277.62H303.652L316.845 245.604H317.067V278H324.406Z" fill="white"/>
</svg>
